<?xml version="1.0" standalone="no"?><!DOCTYPE svg PUBLIC "-//W3C//DTD SVG 1.1//EN" "http://www.w3.org/Graphics/SVG/1.1/DTD/svg11.dtd"><svg t="1739977292805" class="icon" viewBox="0 0 1024 1024" version="1.1" xmlns="http://www.w3.org/2000/svg" p-id="6847" xmlns:xlink="http://www.w3.org/1999/xlink" width="200" height="200"><path d="M407.217633 419.651918c23.092245-23.175837 53.874939-36.675918 88.523755-38.619428h177.04751V313.469388h-177.04751a205.782204 205.782204 0 0 0-75.044572 13.520979c-23.092245 9.654857-46.18449 23.175837-63.529796 42.485551-19.226122 17.366204-32.705306 40.542041-42.318367 63.717878-9.613061 23.154939-15.401796 50.196898-15.401796 75.295347s5.767837 52.140408 15.401796 75.316245a204.59102 204.59102 0 0 0 42.339265 63.717877 203.859592 203.859592 0 0 0 63.508898 42.464653c23.092245 9.654857 50.029714 13.52098 75.044572 13.52098h177.04751v-67.584h-177.04751c-32.726204 0-65.43151-15.443592-88.523755-38.619429a141.332898 141.332898 0 0 1-2.591347-2.65404l-0.710531-0.752327a111.908571 111.908571 0 0 1-23.65649-37.135673c-5.746939-15.46449-9.613061-30.887184-9.613061-48.274286 0-15.443592 3.866122-32.809796 9.613061-48.274286l0.041796-0.041796 1.441959-2.528653c6.478367-11.326694 13.10302-22.653388 22.172735-33.980081l1.086694-1.33747 0.10449-0.125388 2.110694-2.507755z" p-id="6848" fill="#d4237a"></path><path d="M457.247347 475.637551v65.661388h207.851102V475.637551H457.247347z" p-id="6849" fill="#d4237a"></path><path d="M521.696653 947.367184c242.374531 0 438.857143-196.482612 438.857143-438.857143s-196.482612-438.857143-438.857143-438.857143-438.857143 196.482612-438.857143 438.857143 196.482612 438.857143 438.857143 438.857143z m0-62.693878c-207.746612 0-376.163265-168.437551-376.163265-376.163265 0-207.76751 168.416653-376.163265 376.163265-376.163265s376.163265 168.395755 376.163265 376.163265c0 207.725714-168.416653 376.163265-376.163265 376.163265z" p-id="6850" fill="#d4237a"></path></svg>